<svg fill="none" height="110" viewBox="0 0 110 110" width="110" xmlns="http://www.w3.org/2000/svg" xmlns:xlink="http://www.w3.org/1999/xlink"><clipPath id="a"><path d="m0 0h110v110h-110z"/></clipPath><g clip-path="url(#a)" stroke-miterlimit="10"><g stroke-width="2"><path d="m54.9994 109.353c30.0183 0 54.3526-24.3347 54.3526-54.353s-24.3343-54.352905-54.3526-54.352905-54.352916 24.334605-54.352916 54.352905 24.334616 54.353 54.352916 54.353z" fill="#00a499" stroke="#00a499" stroke-linecap="round" stroke-linejoin="round"/><path d="m1.94141 55c0-29.2471 23.81179-53.05884 53.05879-53.05884 29.2471 0 53.0588 23.81174 53.0588 53.05884" stroke="#a1e6e0" stroke-linecap="round" stroke-linejoin="round"/><path d="m100.293 55c0 24.9765-20.3173 45.294-45.2938 45.294s-45.29412-20.3175-45.29412-45.294" stroke="#a1e6e0" stroke-linecap="round" stroke-linejoin="round"/><path d="m55 99c24.3005 0 44-19.6995 44-44s-19.6995-44-44-44-44 19.6995-44 44 19.6995 44 44 44z" fill="#fff" stroke="#00a499"/><path d="m109.352 55c0 30.0235-24.329 54.353-54.3526 54.353-30.0235 0-54.352916-24.3295-54.352916-54.353" stroke="#00404d" stroke-linecap="round" stroke-linejoin="round"/><path d="m11 55c0-24.3294 19.6706-44 44-44s44 19.6706 44 44" stroke="#00404d" stroke-linecap="round" stroke-linejoin="round"/><path d="m54.9997 20.7059v9.0589c13.9765 0 25.2353 11.2588 25.2353 25.2353 0 13.9764-11.2588 25.2353-25.2353 25.2353s-25.2353-11.2589-25.2353-25.2353c0-4.5295 1.2941-8.9295 3.3647-12.553l-7.8941-4.5294c-2.9765 5.0471-4.6588 10.8706-4.6588 17.0824.1294 18.8941 15.5294 34.2941 34.4235 34.2941s34.2941-15.4 34.2941-34.2941c0-18.8942-15.4-34.2942-34.2941-34.2942z" fill="#f79c94" stroke="#f79c94" stroke-linecap="round" stroke-linejoin="round"/><path d="m37.6575 44.9061-16.8235-9.5765 15.9176-6.6z" fill="#f79c94" stroke="#f79c94" stroke-linecap="round" stroke-linejoin="round"/><path d="m55 17.4706v6.4706" stroke="#00404d" stroke-linecap="round" stroke-linejoin="round"/><path d="m36.2363 22.5179 3.2353 5.5648" stroke="#00404d" stroke-linecap="round" stroke-linejoin="round"/><path d="m22.5176 36.2352 5.5647 3.2353" stroke="#00404d" stroke-linecap="round" stroke-linejoin="round"/><path d="m17.4707 55h6.4706" stroke="#00404d" stroke-linecap="round" stroke-linejoin="round"/><path d="m22.5176 73.7647 5.5647-3.2353" stroke="#00404d" stroke-linecap="round" stroke-linejoin="round"/><path d="m36.2363 87.4822 3.2353-5.5647" stroke="#00404d" stroke-linecap="round" stroke-linejoin="round"/><path d="m55 92.5294v-6.4706" stroke="#00404d" stroke-linecap="round" stroke-linejoin="round"/><path d="m73.7646 87.4822-3.2353-5.5647" stroke="#00404d" stroke-linecap="round" stroke-linejoin="round"/><path d="m87.4827 73.7647-5.5647-3.2353" stroke="#00404d" stroke-linecap="round" stroke-linejoin="round"/><path d="m92.5292 55h-6.4706" stroke="#00404d" stroke-linecap="round" stroke-linejoin="round"/><path d="m87.4827 36.2352-5.5647 3.2353" stroke="#00404d" stroke-linecap="round" stroke-linejoin="round"/><path d="m73.7646 22.5179-3.2353 5.5648" stroke="#00404d" stroke-linecap="round" stroke-linejoin="round"/></g><path d="m36.4941 23.0352 18.5059 34.5529v-25.8824" stroke="#00404d" stroke-linecap="round" stroke-linejoin="round" stroke-width="4"/></g></svg>