<svg xmlns="http://www.w3.org/2000/svg" xmlns:xlink="http://www.w3.org/1999/xlink" width="19531" zoomAndPan="magnify" viewBox="0 0 14648.25 8823.749737" height="11765" preserveAspectRatio="xMidYMid meet" version="1.0"><defs><g/><clipPath id="3fad7bc1c0"><path d="M 0 1369.1875 L 6353 1369.1875 L 6353 7587.734375 L 0 7587.734375 Z M 0 1369.1875 " clip-rule="nonzero"/></clipPath></defs><g fill="#00a899" fill-opacity="1"><g transform="translate(7146.720745, 3324.818107)"><g><path d="M 854.25 27.6875 C 720.664062 27.6875 601.800781 11.207031 497.65625 -21.75 C 393.507812 -54.707031 306.71875 -97.988281 237.28125 -151.59375 C 167.851562 -205.207031 114.6875 -264.09375 77.78125 -328.25 L 287.390625 -584 L 320.34375 -584 C 378.351562 -497.875 451.957031 -429.320312 541.15625 -378.34375 C 630.363281 -327.375 734.726562 -301.890625 854.25 -301.890625 C 956.195312 -301.890625 1033.097656 -323.421875 1084.953125 -366.484375 C 1136.804688 -409.546875 1162.734375 -468.867188 1162.734375 -544.453125 C 1162.734375 -590.148438 1154.382812 -628.378906 1137.6875 -659.140625 C 1120.988281 -689.898438 1093.300781 -716.265625 1054.625 -738.234375 C 1015.957031 -760.210938 963.664062 -779.109375 897.75 -794.921875 L 649.921875 -851.609375 C 476.785156 -891.160156 347.8125 -956.859375 263 -1048.703125 C 178.1875 -1140.546875 135.78125 -1259.847656 135.78125 -1406.609375 C 135.78125 -1515.585938 163.023438 -1611.382812 217.515625 -1694 C 272.003906 -1776.613281 351.320312 -1840.769531 455.46875 -1886.46875 C 559.613281 -1932.175781 684.191406 -1955.03125 829.203125 -1955.03125 C 977.734375 -1955.03125 1104.945312 -1935.472656 1210.84375 -1896.359375 C 1316.75 -1857.253906 1406.175781 -1797.273438 1479.125 -1716.421875 L 1290.609375 -1458.03125 L 1257.65625 -1458.03125 C 1203.164062 -1515.15625 1140.765625 -1558 1070.453125 -1586.5625 C 1000.140625 -1615.125 919.722656 -1629.40625 829.203125 -1629.40625 C 724.617188 -1629.40625 645.082031 -1610.945312 590.59375 -1574.03125 C 536.101562 -1537.125 508.859375 -1486.15625 508.859375 -1421.125 C 508.859375 -1360.476562 527.972656 -1312.140625 566.203125 -1276.109375 C 604.429688 -1240.078125 670.566406 -1211.953125 764.609375 -1191.734375 L 1017.71875 -1139 C 1204.914062 -1099.457031 1340.695312 -1032.445312 1425.0625 -937.96875 C 1509.4375 -843.488281 1551.625 -720.226562 1551.625 -568.1875 C 1551.625 -447.78125 1525.695312 -342.972656 1473.84375 -253.765625 C 1421.988281 -164.566406 1343.769531 -95.359375 1239.1875 -46.140625 C 1134.601562 3.078125 1006.289062 27.6875 854.25 27.6875 Z M 854.25 27.6875 "/></g></g></g><g fill="#00a899" fill-opacity="1"><g transform="translate(8616.200751, 3324.818107)"><g><path d="M 1003.21875 -346.703125 L 1098.140625 -76.453125 C 1058.585938 -43.941406 1008.929688 -18.457031 949.171875 0 C 889.410156 18.457031 821.738281 27.6875 746.15625 27.6875 C 588.832031 27.6875 469.300781 -15.15625 387.5625 -100.84375 C 305.832031 -186.53125 264.96875 -311.109375 264.96875 -474.578125 L 264.96875 -1165.375 L 43.5 -1165.375 L 43.5 -1455.390625 L 264.96875 -1455.390625 L 264.96875 -1738.828125 L 630.140625 -1798.15625 L 630.140625 -1455.390625 L 1042.765625 -1455.390625 L 1042.765625 -1165.375 L 630.140625 -1165.375 L 630.140625 -500.953125 C 630.140625 -428.878906 645.078125 -376.363281 674.953125 -343.40625 C 704.835938 -310.457031 748.34375 -293.984375 805.46875 -293.984375 C 870.507812 -293.984375 927.195312 -311.554688 975.53125 -346.703125 Z M 1003.21875 -346.703125 "/></g></g></g><g fill="#00a899" fill-opacity="1"><g transform="translate(9559.683689, 3324.818107)"><g><path d="M 845.03125 27.6875 C 702.65625 27.6875 577.632812 -1.535156 469.96875 -59.984375 C 362.3125 -118.429688 278.820312 -204.117188 219.5 -317.046875 C 160.175781 -429.984375 130.515625 -566.425781 130.515625 -726.375 C 130.515625 -886.332031 160.175781 -1022.992188 219.5 -1136.359375 C 278.820312 -1249.734375 362.3125 -1335.644531 469.96875 -1394.09375 C 577.632812 -1452.539062 702.65625 -1481.765625 845.03125 -1481.765625 C 987.40625 -1481.765625 1112.421875 -1452.539062 1220.078125 -1394.09375 C 1327.734375 -1335.644531 1411.441406 -1249.734375 1471.203125 -1136.359375 C 1530.972656 -1022.992188 1560.859375 -886.332031 1560.859375 -726.375 C 1560.859375 -566.425781 1530.972656 -429.984375 1471.203125 -317.046875 C 1411.441406 -204.117188 1327.734375 -118.429688 1220.078125 -59.984375 C 1112.421875 -1.535156 987.40625 27.6875 845.03125 27.6875 Z M 845.03125 -282.109375 C 1070.894531 -282.109375 1183.828125 -430.195312 1183.828125 -726.375 C 1183.828125 -880.175781 1154.820312 -992.890625 1096.8125 -1064.515625 C 1038.8125 -1136.140625 954.882812 -1171.953125 845.03125 -1171.953125 C 619.15625 -1171.953125 506.21875 -1023.425781 506.21875 -726.375 C 506.21875 -430.195312 619.15625 -282.109375 845.03125 -282.109375 Z M 845.03125 -282.109375 "/></g></g></g><g fill="#00a899" fill-opacity="1"><g transform="translate(11063.439092, 3324.818107)"><g><path d="M 209.609375 0 L 209.609375 -1454.078125 L 564.234375 -1454.078125 L 564.234375 -1237.875 L 591.90625 -1232.609375 C 627.0625 -1313.460938 673.203125 -1372.78125 730.328125 -1410.5625 C 787.453125 -1448.351562 856.882812 -1467.25 938.625 -1467.25 C 1021.238281 -1467.25 1084.078125 -1453.191406 1127.140625 -1425.078125 L 1065.171875 -1110 L 1037.5 -1104.734375 C 1013.769531 -1114.398438 990.914062 -1121.425781 968.9375 -1125.8125 C 946.96875 -1130.207031 920.164062 -1132.40625 888.53125 -1132.40625 C 786.582031 -1132.40625 708.800781 -1096.59375 655.1875 -1024.96875 C 601.582031 -953.34375 574.78125 -838.429688 574.78125 -680.234375 L 574.78125 0 Z M 209.609375 0 "/></g></g></g><g fill="#00a899" fill-opacity="1"><g transform="translate(12017.468537, 3324.818107)"><g><path d="M 1436.9375 -644.640625 L 502.265625 -644.640625 C 512.816406 -518.085938 548.851562 -426.023438 610.375 -368.453125 C 671.894531 -310.890625 755.820312 -282.109375 862.15625 -282.109375 C 945.65625 -282.109375 1013.328125 -297.707031 1065.171875 -328.90625 C 1117.023438 -360.113281 1158.773438 -407.351562 1190.421875 -470.625 L 1218.09375 -470.625 L 1460.671875 -315.078125 C 1413.210938 -213.128906 1341.582031 -130.515625 1245.78125 -67.234375 C 1149.988281 -3.953125 1022.113281 27.6875 862.15625 27.6875 C 711.875 27.6875 582.023438 -0.875 472.609375 -58 C 363.191406 -115.125 278.820312 -200.15625 219.5 -313.09375 C 160.175781 -426.03125 130.515625 -563.789062 130.515625 -726.375 C 130.515625 -891.601562 161.710938 -1030.898438 224.109375 -1144.265625 C 286.503906 -1257.640625 370.875 -1342.234375 477.21875 -1398.046875 C 583.5625 -1453.859375 703.085938 -1481.765625 835.796875 -1481.765625 C 1041.453125 -1481.765625 1198.988281 -1427.273438 1308.40625 -1318.296875 C 1417.820312 -1209.316406 1472.53125 -1049.363281 1472.53125 -838.4375 C 1472.53125 -761.96875 1469.894531 -702.644531 1464.625 -660.46875 Z M 1123.1875 -880.625 C 1119.664062 -991.351562 1093.957031 -1071.984375 1046.0625 -1122.515625 C 998.164062 -1173.054688 928.078125 -1198.328125 835.796875 -1198.328125 C 651.234375 -1198.328125 542.691406 -1092.425781 510.171875 -880.625 Z M 1123.1875 -880.625 "/></g></g></g><g fill="#00a899" fill-opacity="1"><g transform="translate(7146.720745, 5456.665062)"><g><path d="M 1055.953125 0 L 674.96875 0 L 674.96875 -756.703125 L 9.234375 -1927.34375 L 417.890625 -1927.34375 L 858.203125 -1169.328125 L 891.171875 -1169.328125 L 1322.25 -1927.34375 L 1721.6875 -1927.34375 L 1055.953125 -756.703125 Z M 1055.953125 0 "/></g></g></g><g fill="#00a899" fill-opacity="1"><g transform="translate(8691.343115, 5456.665062)"><g><path d="M 845.03125 27.6875 C 702.65625 27.6875 577.632812 -1.535156 469.96875 -59.984375 C 362.3125 -118.429688 278.820312 -204.117188 219.5 -317.046875 C 160.175781 -429.984375 130.515625 -566.425781 130.515625 -726.375 C 130.515625 -886.332031 160.175781 -1022.992188 219.5 -1136.359375 C 278.820312 -1249.734375 362.3125 -1335.644531 469.96875 -1394.09375 C 577.632812 -1452.539062 702.65625 -1481.765625 845.03125 -1481.765625 C 987.40625 -1481.765625 1112.421875 -1452.539062 1220.078125 -1394.09375 C 1327.734375 -1335.644531 1411.441406 -1249.734375 1471.203125 -1136.359375 C 1530.972656 -1022.992188 1560.859375 -886.332031 1560.859375 -726.375 C 1560.859375 -566.425781 1530.972656 -429.984375 1471.203125 -317.046875 C 1411.441406 -204.117188 1327.734375 -118.429688 1220.078125 -59.984375 C 1112.421875 -1.535156 987.40625 27.6875 845.03125 27.6875 Z M 845.03125 -282.109375 C 1070.894531 -282.109375 1183.828125 -430.195312 1183.828125 -726.375 C 1183.828125 -880.175781 1154.820312 -992.890625 1096.8125 -1064.515625 C 1038.8125 -1136.140625 954.882812 -1171.953125 845.03125 -1171.953125 C 619.15625 -1171.953125 506.21875 -1023.425781 506.21875 -726.375 C 506.21875 -430.195312 619.15625 -282.109375 845.03125 -282.109375 Z M 845.03125 -282.109375 "/></g></g></g><g fill="#00a899" fill-opacity="1"><g transform="translate(10195.098394, 5456.665062)"><g><path d="M 665.734375 27.6875 C 502.265625 27.6875 381.640625 -16.910156 303.859375 -106.109375 C 226.085938 -195.316406 187.203125 -323.414062 187.203125 -490.40625 L 187.203125 -1454.078125 L 552.359375 -1454.078125 L 552.359375 -536.546875 C 552.359375 -447.773438 571.472656 -382.957031 609.703125 -342.09375 C 647.941406 -301.226562 707.046875 -280.796875 787.015625 -280.796875 C 888.085938 -280.796875 966.742188 -313.972656 1022.984375 -380.328125 C 1079.234375 -446.679688 1107.359375 -551.046875 1107.359375 -693.421875 L 1107.359375 -1454.078125 L 1472.53125 -1454.078125 L 1472.53125 0 L 1121.859375 0 L 1121.859375 -213.5625 L 1094.1875 -220.15625 C 1047.601562 -136.664062 990.691406 -74.484375 923.453125 -33.609375 C 856.222656 7.253906 770.316406 27.6875 665.734375 27.6875 Z M 665.734375 27.6875 "/></g></g></g><g fill="#00a899" fill-opacity="1"><g transform="translate(11690.944167, 5456.665062)"><g><path d="M 209.609375 0 L 209.609375 -1454.078125 L 564.234375 -1454.078125 L 564.234375 -1237.875 L 591.90625 -1232.609375 C 627.0625 -1313.460938 673.203125 -1372.78125 730.328125 -1410.5625 C 787.453125 -1448.351562 856.882812 -1467.25 938.625 -1467.25 C 1021.238281 -1467.25 1084.078125 -1453.191406 1127.140625 -1425.078125 L 1065.171875 -1110 L 1037.5 -1104.734375 C 1013.769531 -1114.398438 990.914062 -1121.425781 968.9375 -1125.8125 C 946.96875 -1130.207031 920.164062 -1132.40625 888.53125 -1132.40625 C 786.582031 -1132.40625 708.800781 -1096.59375 655.1875 -1024.96875 C 601.582031 -953.34375 574.78125 -838.429688 574.78125 -680.234375 L 574.78125 0 Z M 209.609375 0 "/></g></g></g><g fill="#00a899" fill-opacity="1"><g transform="translate(7146.720745, 7588.512017)"><g><path d="M 943.890625 -1927.34375 C 1256.765625 -1927.34375 1495.59375 -1846.484375 1660.375 -1684.765625 C 1825.164062 -1523.054688 1907.5625 -1282.691406 1907.5625 -963.671875 C 1907.5625 -645.523438 1825.164062 -405.375 1660.375 -243.21875 C 1495.59375 -81.070312 1256.765625 0 943.890625 0 L 250.46875 0 L 250.46875 -1927.34375 Z M 921.484375 -320.34375 C 1120.109375 -320.34375 1268.632812 -371.097656 1367.0625 -472.609375 C 1465.5 -574.117188 1514.71875 -737.804688 1514.71875 -963.671875 C 1514.71875 -1189.535156 1465.5 -1353.222656 1367.0625 -1454.734375 C 1268.632812 -1556.242188 1120.109375 -1607 921.484375 -1607 L 631.46875 -1607 L 631.46875 -320.34375 Z M 921.484375 -320.34375 "/></g></g></g><g fill="#00a899" fill-opacity="1"><g transform="translate(9020.915152, 7588.512017)"><g><path d="M 845.03125 27.6875 C 702.65625 27.6875 577.632812 -1.535156 469.96875 -59.984375 C 362.3125 -118.429688 278.820312 -204.117188 219.5 -317.046875 C 160.175781 -429.984375 130.515625 -566.425781 130.515625 -726.375 C 130.515625 -886.332031 160.175781 -1022.992188 219.5 -1136.359375 C 278.820312 -1249.734375 362.3125 -1335.644531 469.96875 -1394.09375 C 577.632812 -1452.539062 702.65625 -1481.765625 845.03125 -1481.765625 C 987.40625 -1481.765625 1112.421875 -1452.539062 1220.078125 -1394.09375 C 1327.734375 -1335.644531 1411.441406 -1249.734375 1471.203125 -1136.359375 C 1530.972656 -1022.992188 1560.859375 -886.332031 1560.859375 -726.375 C 1560.859375 -566.425781 1530.972656 -429.984375 1471.203125 -317.046875 C 1411.441406 -204.117188 1327.734375 -118.429688 1220.078125 -59.984375 C 1112.421875 -1.535156 987.40625 27.6875 845.03125 27.6875 Z M 845.03125 -282.109375 C 1070.894531 -282.109375 1183.828125 -430.195312 1183.828125 -726.375 C 1183.828125 -880.175781 1154.820312 -992.890625 1096.8125 -1064.515625 C 1038.8125 -1136.140625 954.882812 -1171.953125 845.03125 -1171.953125 C 619.15625 -1171.953125 506.21875 -1023.425781 506.21875 -726.375 C 506.21875 -430.195312 619.15625 -282.109375 845.03125 -282.109375 Z M 845.03125 -282.109375 "/></g></g></g><g fill="#00a899" fill-opacity="1"><g transform="translate(10524.670431, 7588.512017)"><g><path d="M 209.609375 0 L 209.609375 -1454.078125 L 564.234375 -1454.078125 L 564.234375 -1237.875 L 591.90625 -1232.609375 C 627.0625 -1313.460938 673.203125 -1372.78125 730.328125 -1410.5625 C 787.453125 -1448.351562 856.882812 -1467.25 938.625 -1467.25 C 1021.238281 -1467.25 1084.078125 -1453.191406 1127.140625 -1425.078125 L 1065.171875 -1110 L 1037.5 -1104.734375 C 1013.769531 -1114.398438 990.914062 -1121.425781 968.9375 -1125.8125 C 946.96875 -1130.207031 920.164062 -1132.40625 888.53125 -1132.40625 C 786.582031 -1132.40625 708.800781 -1096.59375 655.1875 -1024.96875 C 601.582031 -953.34375 574.78125 -838.429688 574.78125 -680.234375 L 574.78125 0 Z M 209.609375 0 "/></g></g></g><g fill="#00a899" fill-opacity="1"><g transform="translate(11478.699876, 7588.512017)"><g><path d="M 209.609375 0 L 209.609375 -1454.078125 L 560.28125 -1454.078125 L 560.28125 -1258.96875 L 587.953125 -1253.6875 C 635.410156 -1331.90625 691 -1389.472656 754.71875 -1426.390625 C 818.4375 -1463.304688 899.953125 -1481.765625 999.265625 -1481.765625 C 1109.117188 -1481.765625 1197.441406 -1460.007812 1264.234375 -1416.5 C 1331.035156 -1373 1379.816406 -1309.503906 1410.578125 -1226.015625 L 1438.25 -1226.015625 C 1483.070312 -1313.015625 1540.859375 -1377.390625 1611.609375 -1419.140625 C 1682.359375 -1460.890625 1770.460938 -1481.765625 1875.921875 -1481.765625 C 2177.367188 -1481.765625 2328.09375 -1313.898438 2328.09375 -978.171875 L 2328.09375 0 L 1962.9375 0 L 1962.9375 -932.03125 C 1962.9375 -1017.28125 1946.238281 -1078.800781 1912.84375 -1116.59375 C 1879.445312 -1154.382812 1825.835938 -1173.28125 1752.015625 -1173.28125 C 1551.628906 -1173.28125 1451.4375 -1039.253906 1451.4375 -771.203125 L 1451.4375 0 L 1086.265625 0 L 1086.265625 -932.03125 C 1086.265625 -1017.28125 1069.347656 -1078.800781 1035.515625 -1116.59375 C 1001.679688 -1154.382812 947.851562 -1173.28125 874.03125 -1173.28125 C 779.988281 -1173.28125 706.601562 -1141.859375 653.875 -1079.015625 C 601.144531 -1016.179688 574.78125 -916.210938 574.78125 -779.109375 L 574.78125 0 Z M 209.609375 0 "/></g></g></g><g fill="#00a899" fill-opacity="1"><g transform="translate(13835.724225, 2054.591834)"><g><path d="M 265.9375 -370.96875 C 223.101562 -370.96875 184.550781 -380.835938 150.28125 -400.578125 C 116.019531 -420.316406 89.203125 -447.597656 69.828125 -482.421875 C 50.460938 -517.242188 40.78125 -556.445312 40.78125 -600.03125 C 40.78125 -643.601562 50.460938 -682.800781 69.828125 -717.625 C 89.203125 -752.457031 116.019531 -779.648438 150.28125 -799.203125 C 184.550781 -818.753906 223.101562 -828.53125 265.9375 -828.53125 C 308.769531 -828.53125 347.316406 -818.753906 381.578125 -799.203125 C 415.847656 -779.648438 442.664062 -752.457031 462.03125 -717.625 C 481.394531 -682.800781 491.078125 -643.601562 491.078125 -600.03125 C 491.078125 -556.445312 481.394531 -517.242188 462.03125 -482.421875 C 442.664062 -447.597656 415.847656 -420.316406 381.578125 -400.578125 C 347.316406 -380.835938 308.769531 -370.96875 265.9375 -370.96875 Z M 265.9375 -427.390625 C 297.59375 -427.390625 325.804688 -434.46875 350.578125 -448.625 C 375.347656 -462.78125 394.625 -482.890625 408.40625 -508.953125 C 422.1875 -535.023438 429.078125 -565.382812 429.078125 -600.03125 C 429.078125 -634.664062 422.1875 -665.019531 408.40625 -691.09375 C 394.625 -717.164062 375.347656 -737.273438 350.578125 -751.421875 C 325.804688 -765.578125 297.59375 -772.65625 265.9375 -772.65625 C 233.90625 -772.65625 205.503906 -765.578125 180.734375 -751.421875 C 155.960938 -737.273438 136.6875 -717.164062 122.90625 -691.09375 C 109.125 -665.019531 102.234375 -634.664062 102.234375 -600.03125 C 102.234375 -565.382812 109.125 -535.023438 122.90625 -508.953125 C 136.6875 -482.890625 155.960938 -462.78125 180.734375 -448.625 C 205.503906 -434.46875 233.90625 -427.390625 265.9375 -427.390625 Z M 176.546875 -483.265625 L 176.546875 -716.796875 L 283.8125 -716.796875 C 308.394531 -716.796875 327.296875 -711.488281 340.515625 -700.875 C 353.742188 -690.257812 360.359375 -674.707031 360.359375 -654.21875 C 360.359375 -640.4375 356.351562 -628.515625 348.34375 -618.453125 C 340.332031 -608.398438 329.066406 -601.882812 314.546875 -598.90625 L 314.546875 -592.765625 C 328.328125 -587.546875 338.195312 -575.066406 344.15625 -555.328125 L 367.609375 -483.265625 L 300.578125 -483.265625 L 282.6875 -542.484375 C 278.96875 -555.515625 275.054688 -563.984375 270.953125 -567.890625 C 266.859375 -571.804688 260.53125 -573.765625 251.96875 -573.765625 L 239.125 -573.765625 L 239.125 -483.265625 Z M 272.640625 -619.015625 C 291.265625 -619.015625 300.578125 -627.957031 300.578125 -645.84375 C 300.578125 -654.40625 298.34375 -660.734375 293.875 -664.828125 C 289.40625 -668.929688 282.328125 -670.984375 272.640625 -670.984375 L 239.125 -670.984375 L 239.125 -619.015625 Z M 272.640625 -619.015625 "/></g></g></g><g clip-path="url(#3fad7bc1c0)"><path fill="#00a899" d="M 0 1369.1875 L 6352.316406 1369.1875 L 6352.316406 7587.734375 L 0 7587.734375 Z M 0 1369.1875 " fill-opacity="1" fill-rule="nonzero"/></g></svg>