<svg fill="none" height="68" viewBox="0 0 50 68" width="50" xmlns="http://www.w3.org/2000/svg" xmlns:xlink="http://www.w3.org/1999/xlink"><clipPath id="a"><path d="m0 0h50v68h-50z"/></clipPath><g clip-path="url(#a)"><g stroke-linecap="round" stroke-linejoin="round" stroke-miterlimit="10"><path d="m27.5223 34.9325-8.8013-4.9204-.0422.6151c-.1688 2.3155-.1477 2.6592.1478 7.9233l4.2001 13.3321 8.3791-2.9125z" fill="#00404d" stroke="#00404d"/><path d="m38.4976 59.7155 1.5407 1.3205" stroke="#00404d"/><path d="m41.8744 62.6098-5.3609 4.5405c-.5066.4161-1.1609.6512-1.8574.6512h-2.1317l.0211-1.6099 2.174-.796c.0211-.0181.0422-.0362.0422-.0542l.5065-3.021" stroke="#00404d"/><path d="m41.0517 61.886-5.1288 4.3596c-.5066.4161-1.1609.6512-1.8574.6512h-1.4985l-.0211.9045h2.1317c.6965 0 1.3719-.2352 1.8574-.6512l5.3609-4.5405z" fill="#f79c94" stroke="#f79c94"/><path d="m41.8744 62.6096-5.3609 4.5405c-.5066.4161-1.1609.6513-1.8574.6513h-2.1317l.0211-1.61" stroke="#00404d"/><path d="m32.1449 37.4108.3799-.5789-1.0765-4.5948h-8.4635l-2.4061 1.6462.7387 3.5456-2.3428 13.9833 9.4556 2.2069z" fill="#00404d" stroke="#00404d"/><path d="m36.9149 57.9607-5.5087-8.9906-6.0786 2.9124 9.9621 10.4559 2.976-.5427.2322-2.0803" stroke="#00404d"/><path d="m25.4541 33.1237.1055.6693c.19 1.1759 1.3719 2.0442 2.7649 2.0442h.6543" stroke="#fff"/><path d="m30.7305 32.9063.9497 4.1425" stroke="#fff"/><path d="m17.6448 33.2321-15.78738-1.0673 1.07642-10.0579 15.78736 1.0673z" fill="#ffeabf" stroke="#ffeabf"/><path d="m17.6448 33.2322-15.78738-1.0673" stroke="#00404d"/><path d="m11.8408 22.7039-.2322 2.0441-2.00508-.1447.21106-2.026" stroke="#00404d"/><path d="m17.5184 23.0837-15.78744-1.0673 1.07641-10.076 15.78743 1.0854z" fill="#f79c94" stroke="#f79c94"/><path d="m17.5184 23.0835-15.78744-1.0673" stroke="#00404d"/><path d="m11.7143 12.5555-.2322 2.026-2.00505-.1266.21106-2.0441" stroke="#00404d"/><path d="m30.5409 10.7827c-2.0473.7236-4.0946 1.4472-6.163 2.1165-1.8573 1.4472-4.5378 3.5637-5.0655 8.1042l-.7387 11.903 13.4235-.7055-1.013-3.7084c2.7438-8.3031 2.5327-12.8437-.4433-17.7098z" fill="#00a499" stroke="#00a499"/><path d="m31.8495 26.575c-.4433 1.1758-1.0131 2.2974-1.7518 3.3828" stroke="#00404d"/><path d="m31.2159 18.4165-1.5196.9949" stroke="#00404d"/></g><path d="m23.1535 18.7602c-.8654.9587-1.393 2.4783-1.8152 4.3596l-9.0756 7.4349-.6543.0361c-.401.0181-.7809.0905-1.1397.2171l-.0422.0181c-.3588.1266-.75986.199-1.13977.2171l-1.51964.0723c.02111.3799.3588.7055.80203.7598l1.39301.1809-.71761.8864c-.18996.2352-.08442.5608.21106.6874l1.73072.7236c.4854.199 1.0764.0904 1.393-.2894l1.4774-1.6462s12.6848-7.9052 11.1441-6.8741l3.4825-4.1606z" fill="#fff"/><path d="m9.41357 33.63 1.73073.7236c.4854.199 1.0553.0905 1.393-.2894l1.4774-1.6462c1.5197-.7959 3.1659-2.0079 4.6434-2.8943l-.1478 3.7626" stroke="#00404d" stroke-linecap="round" stroke-linejoin="round" stroke-miterlimit="10"/><path d="m10.1309 33.9376c.4854.1989 1.0553.0904 1.393-.2895l.6331-.7055" stroke="#00404d" stroke-linecap="round" stroke-linejoin="round" stroke-miterlimit="10"/><path d="m9.60352 33.6299c.3588 0 .69648-.1267.92868-.3799l.6332-.7055" stroke="#00404d" stroke-linecap="round" stroke-linejoin="round" stroke-miterlimit="10"/><path d="m30.1186 17.2048c-.1055 1.411-.5065 3.0029-1.4774 4.1606l-3.4825 4.1606" stroke="#00404d" stroke-linecap="round" stroke-linejoin="round" stroke-miterlimit="10"/><path d="m3.41899 10.2942c-.10548-.43417-.21097-.88642-.31645-1.32057" stroke="#00404d" stroke-linecap="round" stroke-linejoin="round" stroke-miterlimit="10"/><path d="m1.11863 11.1084c-.379915-.217-.738719-.4341-1.11863-.6512" stroke="#00404d" stroke-linecap="round" stroke-linejoin="round" stroke-miterlimit="10"/><path d="m7.09178 33.7025c-.44323.1809-.86535.3799-1.30858.5608" stroke="#00404d" stroke-linecap="round" stroke-linejoin="round" stroke-miterlimit="10"/><path d="m18.1936 66.0469.9075-1.2301-2.6804.3799-1.4353-1.9356-3.9679.3437-2.72271-.6874-1.09752 1.5557" stroke="#00404d" stroke-linecap="round" stroke-linejoin="round" stroke-miterlimit="10"/><path d="m13.2547 66.4629-5.52978-2.7496-.52765.7778 5.65643 2.8039c.6965.3437 1.4986.5246 2.3006.5246h1.7729l.6121-.8321h-1.9629c-.8231 0-1.6252-.1809-2.3217-.5246z" fill="#f79c94" stroke="#f79c94" stroke-linecap="round" stroke-linejoin="round" stroke-miterlimit="10"/><path d="m7.19727 64.4728 5.65643 2.822c.6965.3437 1.4986.5246 2.3006.5246h1.7729" stroke="#00404d" stroke-linecap="round" stroke-linejoin="round" stroke-miterlimit="10"/><path d="m1.625 67.8195h46.8979" stroke="#00404d" stroke-linecap="round" stroke-linejoin="round" stroke-miterlimit="10"/><path d="m14.9854 63.2609 1.4352 1.9356 2.6804-.3799 7.8937-11.487-6.5429-1.5557-4.179 9.6418" fill="#fff"/><path d="m14.9854 63.2609 1.4352 1.9356 2.6804-.3799 7.8937-11.487-6.5429-1.5557-4.179 9.6418" stroke="#00404d" stroke-linecap="round" stroke-linejoin="round" stroke-miterlimit="10"/><path d="m25.6861 11.7779c-.4854-.3618-.802-.8683-.9498-1.3929.4855-.0724.9287-.3076 1.2664-.61508.3377-.32561.5276-.74167.5276-1.15774" stroke="#00404d" stroke-linecap="round" stroke-linejoin="round" stroke-miterlimit="10"/><path d="m24.1243 10.3666c-.3588.018-.7177.0361-1.0553-.0724-.3377-.0905-.6543-.3618-.6754-.65124.1266-.19898.2743-.47033.401-.66931-.0422-.14472 0-.30753-.0211-.45225.3166.05427.6754.01809.9497-.12662" stroke="#00404d" stroke-linecap="round" stroke-linejoin="round" stroke-miterlimit="10"/><path d="m22.7102 7.68943c-.3799.05427-.7809-.25325-1.0764-.45224l1.3086-1.44718-.0422-.45224c-.0211-.32561.0844-.63314.2743-.90448" stroke="#00404d" stroke-linecap="round" stroke-linejoin="round" stroke-miterlimit="10"/><path d="m29.4644 10.3305c-.1689-.86828.0633-1.80895.6543-2.53254.4854-.59695 1.0342-1.03111 1.3085-1.71851.2744-.68741.2533-1.50145-.211-2.1165" stroke="#00404d" stroke-linecap="round" stroke-linejoin="round" stroke-miterlimit="10"/><path d="m27.1848 6.20604c.0844-.25326.401-.39797.6965-.36179.2954.03618.5276.25325.612.48842.0845.25325.0211.5246-.1477.74168-.1689.21707-.401.37988-.6543.50651-.2533.12662-.5488.21707-.8231.28943" stroke="#00404d" stroke-linecap="round" stroke-linejoin="round" stroke-miterlimit="10"/><path d="m31.2162 2.09972c-.2955.03618-.6754-.01809-.9498.01809-.0633-.21708-.19-.48842-.2533-.7055-.3166.09045-.7387-.07236-1.0553.01809-.1266-.1809-.2533-.434151-.2744-.651228-.3588.054269-.7387.126628-1.0553.271348-.1477-.14472-.2533-.379886-.3799-.506514-.2533.162808-.6332.361794-.8864.524604-.1689-.16281-.4222-.325617-.6121-.488424-.2111.162807-.591.325614-.8021.488424-.2321-.090451-.5065-.05427-.7387-.14472-.0211.19899-.1477.39797-.1688.59696-.2322-.01809-.5488 0-.781-.03618-.1477.21708-.2743.56078-.1477.77786-.1688 0-.4432.07236-.6121.07236-.0633.45224.0844.99493.5277 1.26627l.3166.09045 3.9257.12663 3.8413-.30753.1056-.48842c-.0211-.27134 0-.65123 0-.92257z" fill="#00404d" stroke="#00404d" stroke-linecap="round" stroke-linejoin="round" stroke-miterlimit="10"/><path d="m27.1002 3.9267-.0211 1.80897" stroke="#00404d" stroke-linecap="round" stroke-linejoin="round" stroke-miterlimit="10"/><path d="m27.7124 4.45141 3.5036-.47033" stroke="#00404d" stroke-linecap="round" stroke-linejoin="round" stroke-miterlimit="10"/><path d="m20.5785 33.8833.7387 3.5456-.9075 5.4992" stroke="#fff" stroke-linecap="round" stroke-linejoin="round" stroke-miterlimit="10"/></g></svg>