<svg fill="none" height="52" viewBox="0 0 102 52" width="102" xmlns="http://www.w3.org/2000/svg"><g stroke-linecap="round" stroke-linejoin="round" stroke-miterlimit="10"><path d="m69.35 1h-68.35v40h68.35z" fill="#00a499" stroke="#00a499"/><path d="m101 39.35c0 .9-.75 1.65-1.6502 1.65h-26.65c-.9 0-1.65-.75-1.65-1.65v-1.65" stroke="#00404d"/><path d="m91.2998 21.85 8.7 3.75c.6002.25 1.0002.85 1.0002 1.55v2.25" stroke="#00404d"/><path d="m101 41h-96.65039v3.35h96.65039z" fill="#00404d" stroke="#00404d"/><path d="m19.3504 34.35c-4.35 0-8.05 2.8-9.45001 6.65" stroke="#00404d"/><path d="m79.0498 41h18.85c-1.35-3.9-5.1-6.65-9.45-6.65" stroke="#00404d"/><path d="m101 42.65h-96.65039" stroke="#fff"/><path d="m88.4996 51c3.6727 0 6.65-2.9773 6.65-6.65s-2.9773-6.65-6.65-6.65-6.65 2.9773-6.65 6.65 2.9773 6.65 6.65 6.65z" fill="#00404d" stroke="#00404d"/><path d="m88.5004 47.7c1.8502 0 3.35-1.4998 3.35-3.35s-1.4998-3.35-3.35-3.35-3.35 1.4998-3.35 3.35 1.4998 3.35 3.35 3.35z" fill="#fff" stroke="#00404d"/><path d="m88.4996 46c.9113 0 1.65-.7387 1.65-1.65s-.7387-1.65-1.65-1.65-1.65.7387-1.65 1.65.7387 1.65 1.65 1.65z" fill="#fff" stroke="#00404d"/><path d="m19.3502 51c3.6727 0 6.65-2.9773 6.65-6.65s-2.9773-6.65-6.65-6.65-6.65 2.9773-6.65 6.65 2.9773 6.65 6.65 6.65z" fill="#00404d" stroke="#00404d"/><path d="m19.35 47.7c1.8502 0 3.35-1.4998 3.35-3.35s-1.4998-3.35-3.35-3.35-3.35 1.4998-3.35 3.35 1.4998 3.35 3.35 3.35z" fill="#fff" stroke="#00404d"/><path d="m19.3502 46c.9113 0 1.65-.7387 1.65-1.65s-.7387-1.65-1.65-1.65-1.65.7387-1.65 1.65.7387 1.65 1.65 1.65z" fill="#fff" stroke="#00404d"/><path d="m101 29.35h-1.6504v8.35h1.6504z" fill="#00404d" stroke="#00404d"/><path d="m99.6504 31h.9996" stroke="#fff"/><path d="m99.6504 32.65h.9996" stroke="#fff"/><path d="m99.6504 34.35h.9996" stroke="#fff"/><path d="m99.6504 36h.9996" stroke="#fff"/><path d="m1 34.35h87.5" stroke="#00404d"/><path d="m88.6 19-3.05-8.1c-.1-.25-.2-.5-.35-.75h-4.35-7.35v10.85h12 4.45c-.6-.55-1.05-1.2-1.35-2z" fill="#a1e6e0" stroke="#a1e6e0"/><g stroke="#00404d"><path d="m83.85 17.65h-.35v5h.35c.75 0 1.35-.6 1.35-1.35v-2.35c-.05-.7-.65-1.3-1.35-1.3z" fill="#00404d"/><path d="m83.5 22.65h5"/><path d="m99.3498 28.65c0-.6-.4-1.1-.95-1.25l-7.5-1.95c-.8-.2-1.65-.3-2.5-.3h-15.7c-.9 0-1.65.75-1.65 1.65v1.85"/><path d="m90.7002 19.3c.1-.25.25-.55.35-.8"/><path d="m91.75 20.25c.25-.05.45-.1.7-.2"/><path d="m71 34.35v-25c0-.9.75-1.65 1.65-1.65h8.2c2.1 0 3.95 1.3 4.7 3.25"/><path d="m80.8496 10.15c1.05 0 2 .65 2.35 1.6l3.05 8.1"/><path d="m86.25 19.9c.2.55-.2 1.1-.75 1.1"/></g></g><g fill="#fff"><path d="m36.9502 13.25v1 .9c0 .1.05.15.15.15h2.7c.15 0 .15-.05.15-.2 0-.5 0-1 0-1.5 0-.1 0-.15.1-.15.6-.1 1.15-.15 1.75-.25h.1v.2 1.7c0 .15.05.2.2.2h2.1c.25 0 .25.05.15.25-.15.35-.35.7-.5 1.05-.05.1-.1.15-.25.15-.5 0-1.05 0-1.55 0-.15 0-.2.05-.2.2v3.4.2c.05.4.3.55.65.5.3-.05.6-.15.85-.25.15-.05.2-.05.25.1.2.45.4.85.6 1.3-.2.1-.35.15-.5.2-.55.2-1.1.3-1.65.35-.55 0-1.05-.05-1.5-.45-.3-.3-.5-.65-.55-1.05-.05-.3-.1-.65-.1-.95 0-1.1 0-2.2 0-3.3 0-.2-.05-.25-.25-.25-.85 0-1.7 0-2.55 0-.15 0-.2.05-.2.2v3.3c0 .7.3.9 1 .7.25-.1.5-.2.75-.25.05 0 .15 0 .15.05.2.45.45.9.65 1.4-.2.1-.4.2-.6.25-.7.25-1.4.45-2.15.35-.9-.1-1.45-.55-1.6-1.4-.1-.4-.1-.8-.15-1.25 0-1.05 0-2.1 0-3.2 0-.15-.05-.2-.2-.2-.2 0-.45 0-.65 0-.1 0-.15-.05-.15-.15 0-.4 0-.8 0-1.2 0-.1.05-.15.15-.15h.65c.15 0 .2-.05.2-.2 0-.5 0-1 0-1.5 0-.1 0-.15.1-.15.6-.1 1.15-.15 1.75-.25.1.15.1.15.15.15z"/><path d="m19.3003 14.6c-.4-.05-.85-.1-1.25 0-2.15.45-3.2 2.9-2.05 4.8.75 1.2 2.05 1.75 3.35 1.4.7-.2 1.3-.6 1.85-1.1.05-.05.05-.05.1-.1h.05c.2.35.45.7.65 1.05s.2.35-.05.6c-1.25 1.3-2.75 1.8-4.5 1.45-2.45-.5-4.15-2.75-3.95-5.25.1-1.55.75-2.9 2-3.85.95-.7 2-.95 3.2-.9.75.05 1.5.2 2.15.6.4.25.7.55.9 1 .25.5.1 1.1-.25 1.45-.4.4-1 .5-1.55.25-.45-.2-.75-.75-.7-1.3.05 0 .05-.05.05-.1z"/><path d="m28.2002 15.35v1.25 3.45c0 .15 0 .35.05.5.1.5.4.7.85.7s.85-.15 1.25-.35c.2-.1.45-.3.65-.4.15-.1.15-.2.15-.35 0-1.45 0-2.95 0-4.4 0-.1 0-.2 0-.35h1.9v7.3c-.15 0-.3 0-.4 0-.45 0-.85 0-1.3 0-.15 0-.2-.05-.2-.2 0-.2 0-.45 0-.7-.3.2-.55.35-.85.5-.7.35-1.45.6-2.3.5-1-.1-1.65-.7-1.75-1.65-.05-.6-.05-1.15-.05-1.75 0-1.25 0-2.55 0-3.8 0-.2.05-.25.25-.25h1.5z"/><path d="m50.2998 20.4c.2.4.45.75.65 1.1 0 .05-.05.15-.1.2-.6.55-1.3.9-2.15 1.05-.7.1-1.4.15-2.05-.05-1.1-.35-1.8-1.1-2.1-2.15-.3-1.1-.3-2.2.1-3.25.4-1.1 1.2-1.75 2.35-1.95.8-.15 1.6-.15 2.35.15 1.05.4 1.6 1.15 1.75 2.2.1.55.05 1.05 0 1.6 0 .15-.1.2-.2.2-1.4 0-2.8 0-4.25 0-.05 0-.1 0-.15 0s-.1.1-.1.1c.05.45.15.9.45 1.25.25.3.6.45.95.5.85.05 1.6-.2 2.25-.75.05-.05.1-.1.15-.15s.05-.05.1-.05zm-3.9-2.05h.1 2.75c.1 0 .15-.05.15-.15-.05-.25-.05-.5-.1-.75-.1-.4-.4-.7-.85-.8-1.2-.25-1.95.45-2.05 1.7z"/><path d="m25.1502 12.5v10.15c-.05 0-.1 0-.15 0-.55 0-1.1 0-1.65 0-.15 0-.15-.1-.15-.2 0-2.2 0-4.35 0-6.55 0-.95 0-1.9 0-2.9 0-.15.05-.25.2-.25.5-.05 1.05-.15 1.55-.25z"/><path d="m54.1998 15.35v1.45c.15-.2.25-.4.35-.55.55-.7 1.25-1 2.1-1 .15 0 .2.05.2.2v1.5c0 .15-.05.2-.2.2-1.25.1-2.15.8-2.4 2.05-.1.4-.05.85-.05 1.3v2c0 .15-.05.15-.15.15-.5 0-1 0-1.5 0-.25 0-.25 0-.25-.25 0-1.35 0-2.7 0-4.05 0-.85 0-1.7 0-2.55 0-.15.05-.2.2-.25.5-.05 1.05-.15 1.55-.25-.05.05.05.05.15.05z"/></g></svg>