<svg fill="none" height="87" viewBox="0 0 87 87" width="87" xmlns="http://www.w3.org/2000/svg"><g stroke-linecap="round" stroke-linejoin="round" stroke-miterlimit="10"><path d="m75.45 47.8004v12.85h10l-4-6.65 4-6.2z" fill="#f79c94" stroke="#f79c94"/><path d="m11.5 60.6504v-12.85h-10l4 6.65-4 6.2z" fill="#f79c94" stroke="#f79c94"/><path d="m7.5 51.8004h5.3 66.65v12.85h-71.95z" fill="#00404d" stroke="#00404d"/><path d="m27.3 73.8204c-12.4-9.3-19.8-24.1-19.8-39.6v-18.05c0-1.49 1.58-2.46 2.91-1.78l6.09 3.1c6.3 0 12.23-2.45 16.68-6.91l8.2-8.19997c1.17-1.17 3.07-1.17 4.24 0l8.2 8.19997c4.46 4.46 10.38 6.91 16.68 6.91l6.09-3.1c1.33-.68 2.91.29 2.91 1.78v18.05c0 15.58-7.34 30.25-19.8 39.6l-16.2 12.15z" fill="#a1e6e0" stroke="#a1e6e0"/><path d="m43.5 74.7204-10.8-8.1c-10.2-7.65-16.2-19.65-16.2-32.4v-7.74c8.64 0 16.93-3.43 23.05-9.55l3.95-3.95 3.95 3.95c6.11 6.11 14.4 9.55 23.05 9.55v7.74c0 12.75-6 24.75-16.2 32.4z" fill="#00a499" stroke="#00a499"/><path d="m33.73 65.2504c-9.71-7.29-15.51-18.89-15.51-31.03v-6.06c8.52-.42 16.47-3.93 22.54-10.01l2.74-2.74 2.74 2.74c6.07 6.07 14.02 9.59 22.54 10.01v6.06c0 12.14-5.8 23.74-15.51 31.03l-9.77 7.33z" stroke="#fff"/><path d="m70.5 34.2204v-7.74c-8.64 0-16.93-3.43-23.05-9.55l-3.95-3.95-3.95 3.95c-6.11 6.11-14.4 9.55-23.05 9.55v7.74" stroke="#00404d"/><path d="m24.64 85.9705h37.72" stroke="#00404d"/><path d="m67.82 42.7904c-2.03 8.88-7.1501 16.91-14.5401 22.46l-9.77 7.33-9.7699-7.33c-7.39-5.54-12.51-13.58-14.54-22.46" stroke="#00404d"/></g><path d="m44.31 25.5004 1.75 3.54 3.91.57c.74.11 1.04 1.02.5 1.54l-2.83 2.75.67 3.89c.13.74-.65 1.3-1.31.95l-3.49-1.84-3.49 1.84c-.66.35-1.44-.21-1.31-.95l.67-3.89-2.83-2.75c-.54-.52-.24-1.43.5-1.54l3.91-.57 1.75-3.54c.31-.67 1.27-.67 1.6 0z" fill="#fff"/><path d="m50.46 31.1505-2.83 2.75.67 3.89c.13.74-.65 1.3-1.31.95l-3.49-1.84-3.49 1.84c-.66.35-1.44-.21-1.31-.95l.67-3.89-2.83-2.75" stroke="#00404d" stroke-linecap="round" stroke-linejoin="round" stroke-miterlimit="10"/><path d="m34.66 40.2704 1.75 3.54 3.91.57c.74.11 1.04 1.02.5 1.54l-2.83 2.75.67 3.89c.13.74-.65 1.3-1.31.95l-3.49-1.84-3.49 1.84c-.66.35-1.44-.21-1.31-.95l.67-3.89-2.83-2.75c-.54-.52-.24-1.43.5-1.54l3.91-.57 1.75-3.54c.31-.67 1.27-.67 1.6 0z" fill="#fff"/><path d="m40.81 45.9204-2.83 2.75.67 3.89c.13.74-.65 1.3-1.31.95l-3.49-1.84-3.49 1.84c-.66.35-1.44-.21-1.31-.95l.67-3.89-2.83-2.75" stroke="#00404d" stroke-linecap="round" stroke-linejoin="round" stroke-miterlimit="10"/><path d="m53.96 40.2704 1.75 3.54 3.91.57c.74.11 1.04 1.02.5 1.54l-2.83 2.75.67 3.89c.13.74-.65 1.3-1.31.95l-3.49-1.84-3.49 1.84c-.66.35-1.44-.21-1.31-.95l.67-3.89-2.83-2.75c-.54-.52-.24-1.43.5-1.54l3.91-.57 1.75-3.54c.31-.67 1.27-.67 1.6 0z" fill="#fff"/><path d="m60.1101 45.9204-2.83 2.75.67 3.89c.13.74-.65 1.3-1.31.95l-3.49-1.84-3.49 1.84c-.66.35-1.44-.21-1.31-.95l.67-3.89-2.83-2.75" stroke="#00404d" stroke-linecap="round" stroke-linejoin="round" stroke-miterlimit="10"/><path d="m79.5 34.2205c0 15.58-7.34 30.25-19.8 39.6l-16.2 12.15-16.2-12.15c-12.4-9.3-19.8-24.1-19.8-39.6" stroke="#00404d" stroke-linecap="round" stroke-linejoin="round" stroke-miterlimit="10"/><path d="m14.1 58.8604c3.31 5.77 7.78 10.9 13.2 14.96l.7.53c4.29.45 9.4.73 15.5.73s11.21-.28 15.5-.73l.7-.53c5.46-4.1 9.94-9.22 13.25-14.99-5.27 1.66-14.36 3.39-29.45 3.39-15.02 0-24.11-1.71-29.4-3.36z" fill="#00404d" stroke="#00404d" stroke-linecap="round" stroke-linejoin="round" stroke-miterlimit="10"/><path d="m78.5 34.2205c0 15.18-7.25 29.69-19.4 38.8l-15.6 11.7-15.6-11.7c-12.15-9.11-19.4-23.61-19.4-38.8" stroke="#a1e6e0" stroke-linecap="round" stroke-linejoin="round" stroke-miterlimit="10"/><path d="m7.5 51.8004s6.88 6.43 36 6.43 35.95-6.43 35.95-6.43v12.86s-6.83 6.43-35.95 6.43-36-6.43-36-6.43z" fill="#f79c94" stroke="#f79c94" stroke-linecap="round" stroke-linejoin="round" stroke-miterlimit="10"/><path d="m79.45 51.8004v12.86s-6.83 6.43-35.95 6.43-36-6.43-36-6.43v-12.86" stroke="#00404d" stroke-linecap="round" stroke-linejoin="round" stroke-miterlimit="10"/><path d="m8.5 34.22v-18.05c0-.62.52-1 1-1 .15 0 .31.04.45.11l6.31 3.2h.24c6.57 0 12.74-2.56 17.39-7.2l8.2-8.2c.38-.38.88-.58 1.41-.58s1.04.21 1.41.58l8.2 8.2c4.64 4.64 10.82 7.2 17.39 7.2h.24l6.31-3.2c.14-.07.3-.11.45-.11.48 0 1 .38 1 1v18.05" stroke="#fff" stroke-linecap="round" stroke-linejoin="round" stroke-miterlimit="10"/></svg>