<svg fill="none" height="87" viewBox="0 0 75 87" width="75" xmlns="http://www.w3.org/2000/svg"><g stroke-linecap="round" stroke-linejoin="round" stroke-miterlimit="10"><path d="m21.3 73.8204c-12.4-9.3-19.8-24.1-19.8-39.6v-13.73c0-1.66 1.34-3 3-3h6c6.26 0 12.26-2.49 16.68-6.91l8.2-8.19997c1.17-1.17 3.07-1.17 4.24 0l8.2 8.19997c4.42 4.42 10.42 6.91 16.68 6.91h6c1.66 0 3 1.34 3 3v13.74c0 15.58-7.34 30.25-19.8 39.6l-16.2 12.14z" fill="#a1e6e0" stroke="#a1e6e0"/><path d="m2.5 34.2207v-13.73c0-1.1.9-2 2-2h6c6.57 0 12.74-2.56 17.39-7.2l8.2-8.19996c.38-.38.88-.58 1.41-.58s1.04.21 1.41.58l8.2 8.19996c4.64 4.64 10.82 7.2 17.39 7.2h6c1.1 0 2 .9 2 2v13.74" stroke="#fff"/><path d="m37.5 74.7205-10.8-8.1c-10.2-7.65-16.2-19.65-16.2-32.4v-7.74c8.64 0 16.93-3.43 23.05-9.55l3.95-3.95 3.95 3.95c6.11 6.11 14.4 9.55 23.05 9.55v7.74c0 12.75-6 24.75-16.2 32.4z" fill="#ffeabf" stroke="#ffeabf"/><path d="m27.73 65.2502c-9.71-7.29-15.51-18.89-15.51-31.03v-6.06c8.52-.42 16.47-3.93 22.54-10.01l2.74-2.74 2.74 2.74c6.07 6.07 14.02 9.59 22.54 10.01v6.06c0 12.14-5.8 23.74-15.51 31.03l-9.77 7.33z" stroke="#fff"/><path d="m64.5 34.2205v-7.74c-8.64 0-16.93-3.43-23.05-9.55l-3.95-3.95-3.95 3.95c-6.11 6.11-14.4 9.55-23.05 9.55v7.74" stroke="#00404d"/><path d="m18.6399 85.9707h37.72" stroke="#00404d"/><path d="m61.82 42.79c-2.03 8.88-7.1501 16.91-14.5401 22.46l-9.77 7.33-9.7699-7.33c-7.39-5.54-12.51-13.58-14.54-22.46" stroke="#00404d"/></g><path d="m39.04 29.7806 3.31 6.72 7.41 1.08c1.41.2 1.97 1.93.95 2.92l-5.36 5.23 1.27 7.38c.24 1.4-1.23 2.47-2.49 1.81l-6.63-3.48-6.63 3.48c-1.26.66-2.73-.41-2.49-1.81l1.27-7.38-5.36-5.23c-1.02-.99-.46-2.72.95-2.92l7.41-1.08 3.31-6.72c.63-1.27 2.45-1.27 3.08 0z" fill="#fff"/><path d="m50.71 40.501-5.36 5.23 1.27 7.38c.24 1.4-1.23 2.47-2.49 1.81l-6.63-3.48-6.63 3.48c-1.26.66-2.73-.41-2.49-1.81l1.27-7.38-5.36-5.23" stroke="#00404d" stroke-linecap="round" stroke-linejoin="round" stroke-miterlimit="10"/><path d="m73.5 34.2207c0 15.58-7.34 30.25-19.8 39.6l-16.2 12.15-16.2-12.15c-12.4-9.3-19.8-24.1-19.8-39.6" stroke="#00404d" stroke-linecap="round" stroke-linejoin="round" stroke-miterlimit="10"/></svg>