<svg width="41" height="60" viewBox="0 0 41 60" fill="none" xmlns="http://www.w3.org/2000/svg">
<path d="M39.9904 15.9983L37.1963 48.271L5.55381 48.6713L2.74561 15.9983H39.9904Z" fill="#A1E6E0" stroke="#A1E6E0" stroke-width="2" stroke-linecap="round" stroke-linejoin="round"/>
<path d="M21.368 26.5137C31.6529 26.5137 39.9904 21.8057 39.9904 15.9983C39.9904 10.1908 31.6529 5.48285 21.368 5.48285C11.0831 5.48285 2.74561 10.1908 2.74561 15.9983C2.74561 21.8057 11.0831 26.5137 21.368 26.5137Z" fill="#00404D" stroke="#00404D" stroke-width="2" stroke-linecap="round" stroke-linejoin="round"/>
<path d="M21.368 24.7187C31.6529 24.7187 39.9904 20.0108 39.9904 14.2033C39.9904 8.39583 31.6529 3.68793 21.368 3.68793C11.0831 3.68793 2.74561 8.39583 2.74561 14.2033C2.74561 20.0108 11.0831 24.7187 21.368 24.7187Z" fill="#A1E6E0" stroke="#A1E6E0" stroke-width="2" stroke-linecap="round" stroke-linejoin="round"/>
<path d="M21.3682 59C30.1112 59 37.1989 54.999 37.1989 50.0636C37.1989 45.1282 30.1112 41.1272 21.3682 41.1272C12.6253 41.1272 5.53772 45.1282 5.53772 50.0636C5.53772 54.999 12.6253 59 21.3682 59Z" fill="#00404D" stroke="#00404D" stroke-width="2" stroke-linecap="round" stroke-linejoin="round"/>
<path d="M21.3682 57.2074C30.1112 57.2074 37.1989 53.2064 37.1989 48.271C37.1989 43.3356 30.1112 39.3346 21.3682 39.3346C12.6253 39.3346 5.53772 43.3356 5.53772 48.271C5.53772 53.2064 12.6253 57.2074 21.3682 57.2074Z" fill="#A1E6E0" stroke="#A1E6E0" stroke-width="2" stroke-linecap="round" stroke-linejoin="round"/>
<path d="M21.368 22.0308C31.6529 22.0308 39.9904 17.3229 39.9904 11.5154C39.9904 5.70791 31.6529 1 21.368 1C11.0831 1 2.74561 5.70791 2.74561 11.5154C2.74561 17.3229 11.0831 22.0308 21.368 22.0308Z" fill="#A1E6E0" stroke="#A1E6E0" stroke-width="2" stroke-linecap="round" stroke-linejoin="round"/>
<path d="M40 11.5154C40 17.3231 31.6618 22.0308 21.3775 22.0308C11.0933 22.0308 2.75513 17.3231 2.75513 11.5154" stroke="#00A499" stroke-width="2" stroke-linecap="round" stroke-linejoin="round"/>
<path d="M3.17798 20.2584C4.39751 25.3148 12.0769 29.2105 21.3682 29.2105C30.2461 29.2105 37.6427 25.6566 39.3575 20.9354" stroke="#00A499" stroke-width="2" stroke-linecap="round" stroke-linejoin="round"/>
<path d="M37.1965 46.2804C36.5517 50.8981 29.7205 54.5308 21.3683 54.5308C13.0161 54.5308 6.18253 50.8959 5.53772 46.2737" stroke="#00A499" stroke-width="2" stroke-linecap="round" stroke-linejoin="round"/>
<path d="M21.3682 18.6232C29.5653 18.6232 36.2106 15.1197 36.2106 10.7979C36.2106 6.47612 29.5653 2.97263 21.3682 2.97263C13.171 2.97263 6.52588 6.47612 6.52588 10.7979C6.52588 15.1197 13.171 18.6232 21.3682 18.6232Z" stroke="#00A499" stroke-width="2" stroke-linecap="round" stroke-linejoin="round"/>
<path d="M21.3682 15.5731C27.4764 15.5731 32.4282 13.274 32.4282 10.438C32.4282 7.60194 27.4764 5.30286 21.3682 5.30286C15.26 5.30286 10.3083 7.60194 10.3083 10.438C10.3083 13.274 15.26 15.5731 21.3682 15.5731Z" stroke="#00A499" stroke-width="2" stroke-linecap="round" stroke-linejoin="round"/>
<path d="M17.3895 11.4659L19.3357 12.5478L25.3469 9.21209L23.4007 8.13028L17.3895 11.4659Z" fill="#00404D" stroke="#00404D" stroke-width="2" stroke-linecap="round" stroke-linejoin="round"/>
<path d="M17.3895 7.88054L19.3357 8.96245L25.3469 5.62675L23.4007 4.54483L17.3895 7.88054Z" fill="#A1E6E0" stroke="#00A499" stroke-width="2" stroke-linecap="round" stroke-linejoin="round"/>
<path d="M25.3468 9.21208V5.62674L23.4006 6.75369V8.13028L25.3468 9.21208Z" fill="#00404D" stroke="#00404D" stroke-width="2" stroke-linecap="round" stroke-linejoin="round"/>
<path d="M19.3357 8.96244V12.5478L17.3895 11.4659V7.88052L19.3357 8.96244Z" fill="#A1E6E0" stroke="#00A499" stroke-width="2" stroke-linecap="round" stroke-linejoin="round"/>
<path d="M23.4006 8.13028L25.3468 9.21209" stroke="#00A499" stroke-width="2" stroke-linecap="round" stroke-linejoin="round"/>
<path d="M33.0264 51.6516L34.6897 25.967" stroke="#00A499" stroke-width="2" stroke-linecap="round" stroke-linejoin="round"/>
<path d="M28.0941 53.6873L29.052 28.2523" stroke="#00A499" stroke-width="2" stroke-linecap="round" stroke-linejoin="round"/>
<path d="M14.6465 53.6895L13.6841 28.2523" stroke="#00A499" stroke-width="2" stroke-linecap="round" stroke-linejoin="round"/>
<path d="M9.70321 51.6494L8.04443 25.967" stroke="#00A499" stroke-width="2" stroke-linecap="round" stroke-linejoin="round"/>
<path d="M21.3683 29.2015V54.5308" stroke="#00A499" stroke-width="2" stroke-linecap="round" stroke-linejoin="round"/>
<path d="M4.70593 25.9694C6.5745 27.6657 8.84239 28.9006 11.3153 29.5682H11.341" stroke="#00A499" stroke-width="8" stroke-linecap="round" stroke-linejoin="round"/>
<path d="M9.43461 34.042C9.30584 34.0421 9.17935 34.0095 9.06785 33.9475L2.37908 30.3037C2.21221 30.2139 2.08791 30.0653 2.03217 29.8892C1.97644 29.7132 1.99358 29.5232 2.08003 29.359L3.93039 25.8029C4.02237 25.6385 4.17722 25.5152 4.36211 25.459C4.54701 25.4028 4.74739 25.4182 4.92069 25.5019C5.09398 25.5856 5.22655 25.7311 5.29029 25.9074C5.35403 26.0837 5.3439 26.2769 5.26206 26.4461L3.72945 29.3927L9.11925 32.3281L10.6215 29.4489C10.7151 29.2881 10.8696 29.1682 11.0527 29.1141C11.2357 29.0599 11.4334 29.0758 11.6047 29.1582C11.776 29.2407 11.9078 29.3835 11.9727 29.557C12.0375 29.7305 12.0305 29.9213 11.9531 30.09L10.1005 33.6461C10.0553 33.733 9.99227 33.8102 9.91515 33.8728C9.83803 33.9355 9.74847 33.9823 9.65192 34.0106C9.58145 34.031 9.50823 34.0416 9.43461 34.042Z" fill="#A1E6E0" stroke="#00A499" stroke-width="2" stroke-linecap="round" stroke-linejoin="round"/>
</svg>
